<?xml version="1.0" encoding="UTF-8" standalone="no"?>
<svg
   viewBox="0 -10 187.43721 89.137459"
   version="1.1"
   id="svg234"
   sodipodi:docname="javascript_illustration.svg"
   inkscape:version="1.1.1 (3bf5ae0d25, 2021-09-20)"
   width="187.43721"
   height="89.137459"
   xmlns:inkscape="http://www.inkscape.org/namespaces/inkscape"
   xmlns:sodipodi="http://sodipodi.sourceforge.net/DTD/sodipodi-0.dtd"
   xmlns="http://www.w3.org/2000/svg"
   xmlns:svg="http://www.w3.org/2000/svg"
   xmlns:rdf="http://www.w3.org/1999/02/22-rdf-syntax-ns#"
   xmlns:cc="http://creativecommons.org/ns#"
   xmlns:dc="http://purl.org/dc/elements/1.1/">
  <sodipodi:namedview
     id="namedview236"
     pagecolor="#ffffff"
     bordercolor="#666666"
     borderopacity="1.0"
     inkscape:pageshadow="2"
     inkscape:pageopacity="0.0"
     inkscape:pagecheckerboard="0"
     showgrid="false"
     inkscape:zoom="2.1244631"
     inkscape:cx="115.79396"
     inkscape:cy="84.72729"
     inkscape:window-width="1366"
     inkscape:window-height="715"
     inkscape:window-x="0"
     inkscape:window-y="0"
     inkscape:window-maximized="1"
     inkscape:current-layer="svg234"
     width="259.95px"
     height="99.96px"
     fit-margin-top="0"
     fit-margin-left="0"
     fit-margin-right="0"
     fit-margin-bottom="0" />
  <defs
     id="defs4">
    <style
       id="style2">.cls-1{fill:#f9b117;}.cls-2,.cls-20,.cls-28,.cls-29,.cls-30,.cls-9{fill:none;}.cls-2,.cls-29,.cls-30{stroke:#141414;}.cls-2,.cls-30{stroke-miterlimit:10;}.cls-2,.cls-29{stroke-width:2px;}.cls-17,.cls-3{fill:#0e394f;}.cls-4{fill:#faca3f;}.cls-5{fill:#f99f00;}.cls-6{fill:#2c6e9b;}.cls-18,.cls-7{fill:#0e3964;}.cls-7{opacity:0.3;}.cls-8{fill:#fbd766;}.cls-28,.cls-9{stroke:#fff;}.cls-28,.cls-29,.cls-9{stroke-linecap:round;stroke-linejoin:round;}.cls-9{stroke-width:2.8px;opacity:0.7;}.cls-10{fill:#f7b000;}.cls-11{fill:#e59303;opacity:0.5;}.cls-12{fill:#062538;}.cls-13{fill:#4cf58c;}.cls-14{fill:#185472;}.cls-15{fill:#ffcb6e;}.cls-16{fill:#f7b40d;}.cls-17{opacity:0.2;}.cls-19{fill:#19517f;}.cls-21{fill:#062c4c;}.cls-22{fill:#141414;}.cls-23{fill:#4d9ac4;}.cls-24{fill:#f95d5d;}.cls-25{fill:#033156;}.cls-26{fill:#fff;}.cls-27{fill:#f4f3f2;}.cls-30{stroke-width:1.3px;}</style>
    <clipPath
       clipPathUnits="userSpaceOnUse"
       id="clipPath2209">
      <rect
         style="opacity:0.97;fill:none;fill-opacity:0.988235;stroke:#413b4c;stroke-width:15.979;stroke-linecap:round;stroke-linejoin:round;stroke-opacity:0.988235;paint-order:stroke fill markers"
         id="rect2211"
         width="430.78699"
         height="195.21869"
         x="0.019692108"
         y="1.0524104" />
    </clipPath>
    <clipPath
       clipPathUnits="userSpaceOnUse"
       id="clipPath2575">
      <rect
         style="opacity:0.97;fill:none;fill-opacity:0.988235;stroke:#413b4c;stroke-width:15.979;stroke-linecap:round;stroke-linejoin:round;stroke-opacity:0.988235;paint-order:stroke fill markers"
         id="rect2577"
         width="396.2207"
         height="188.42633"
         x="12.779298"
         y="1.0036736" />
    </clipPath>
  </defs>
  <title
     id="title6">Asset 4</title>
  <g
     id="Layer_2"
     data-name="Layer 2"
     transform="matrix(0.47306264,0,0,0.47306264,-6.0454084,-0.47480046)"
     clip-path="url(#clipPath2575)">
    <g
       id="Layer_1-2"
       data-name="Layer 1">
      <polygon
         class="cls-1"
         points="69.24,21.41 74.15,22.37 72.54,30.6 82.84,35.54 80.67,40.05 66.89,33.44 "
         id="polygon8" />
      <polygon
         class="cls-2"
         points="69.24,21.41 74.15,22.37 72.54,30.6 82.84,35.54 80.67,40.05 66.89,33.44 "
         id="polygon10" />
      <circle
         class="cls-3"
         cx="71.699997"
         cy="18.190001"
         r="6.23"
         id="circle12" />
      <circle
         class="cls-2"
         cx="71.699997"
         cy="18.190001"
         r="6.23"
         id="circle14" />
      <path
         class="cls-4"
         d="m 64.18,52.6 a 22,22 0 0 1 36.43,-11.3 l 11.51,10.7 39.52,36.54 -51.41,16 -51.4,16 11.89,-52.64 z"
         id="path16" />
      <path
         class="cls-5"
         d="m 113.69,53.29 -50.9,15.8 0.78,-3.45 A 49.73,49.73 0 0 0 78.8,60.2 47.08,47.08 0 0 0 98.57,40.05 a 22.44,22.44 0 0 1 4,3 z"
         id="path18" />
      <path
         class="cls-2"
         d="m 360.46,179.64 h 21.06 a 24,24 0 0 0 17,-7 v 0 a 24,24 0 0 1 33.94,0 l 4.5,4.5 a 24,24 0 0 0 17,7 h 32.56"
         id="path20" />
      <path
         class="cls-6"
         d="m 510.68,174.86 c -4.86,-9.31 -13.56,-16.29 -24.79,-16.29 a 29.13,29.13 0 0 0 -27.89,20.86 6.48,6.48 0 0 0 6.25,8.26 h 35.71 l 11.66,-1"
         id="path22" />
      <path
         class="cls-7"
         d="m 467.11,179.43 a 6.47,6.47 0 0 0 6.24,8.26 h -9.14 a 6.48,6.48 0 0 1 -6.25,-8.26 29.13,29.13 0 0 1 27.93,-20.86 28.79,28.79 0 0 1 4.58,0.36 29.15,29.15 0 0 0 -23.36,20.5 z"
         id="path24" />
      <path
         class="cls-2"
         d="m 511.7,183.56 a 24.65,24.65 0 0 0 -16.37,-23.42 29.13,29.13 0 0 0 -37.33,19.2 6.5,6.5 0 0 0 6.22,8.35 h 43.37 a 4.12,4.12 0 0 0 4.12,-4.13 z"
         id="path26" />
      <path
         class="cls-8"
         d="M 75.43,139.53 H 93 v 33.36 a 8.8,8.8 0 0 1 -8.8,8.8 v 0 a 8.8,8.8 0 0 1 -8.8,-8.8 v -33.36 z"
         transform="rotate(-17.23,84.264109,160.66904)"
         id="path28" />
      <path
         class="cls-8"
         d="m 136.56,119.71 h 17.6 v 33.36 a 8.8,8.8 0 0 1 -8.8,8.8 v 0 a 8.8,8.8 0 0 1 -8.8,-8.8 z"
         transform="rotate(-17.23,145.40445,140.83087)"
         id="path30" />
      <path
         class="cls-2"
         d="M 75.43,139.53 H 93 v 33.36 a 8.8,8.8 0 0 1 -8.8,8.8 v 0 a 8.8,8.8 0 0 1 -8.8,-8.8 v -33.36 z"
         transform="rotate(-17.23,84.264109,160.66904)"
         id="path32" />
      <path
         class="cls-2"
         d="m 136.56,119.71 h 17.6 v 33.36 a 8.8,8.8 0 0 1 -8.8,8.8 v 0 a 8.8,8.8 0 0 1 -8.8,-8.8 z"
         transform="rotate(-17.23,145.40445,140.83087)"
         id="path34" />
      <line
         class="cls-9"
         x1="75.849998"
         y1="150.87"
         x2="79.160004"
         y2="161.55"
         id="line36" />
      <path
         class="cls-4"
         d="m 82,118.36 h 63.44 v 41 a 18,18 0 0 1 -18,18 h -27.5 a 18,18 0 0 1 -18,-18 v -41 z"
         transform="rotate(-17.23,113.71616,147.87976)"
         id="path38" />
      <rect
         class="cls-10"
         x="79.730003"
         y="136.71001"
         width="63.439999"
         height="7.7800002"
         transform="rotate(-17.23,111.47391,140.61924)"
         id="rect40" />
      <path
         class="cls-2"
         d="m 82,118.36 h 63.44 v 41 a 18,18 0 0 1 -18,18 h -27.5 a 18,18 0 0 1 -18,-18 v -41 z"
         transform="rotate(-17.23,113.71616,147.87976)"
         id="path42" />
      <path
         class="cls-2"
         d="m 64.18,52.6 a 22,22 0 0 1 36.43,-11.3 l 11.51,10.7 38.52,36.54 -50.41,16 -50.4,16 10.89,-52.64 z"
         id="path44" />
      <rect
         class="cls-1"
         x="44.68"
         y="57.669998"
         width="107.22"
         height="81.040001"
         rx="13.06"
         transform="matrix(0.96,-0.3,0.3,0.96,-24.68,33.53)"
         id="rect46" />
      <path
         class="cls-11"
         d="m 156.39,104.53 1.24,4 a 13.06,13.06 0 0 1 -8.6,16.34 l -77.46,24 a 13.07,13.07 0 0 1 -16.35,-8.6 l -1.24,-4 a 13.06,13.06 0 0 0 16.34,8.6 l 77.47,-24 a 13,13 0 0 0 8.6,-16.34 z"
         id="path48" />
      <rect
         class="cls-3"
         x="51.84"
         y="64.620003"
         width="92.900002"
         height="67.120003"
         rx="7.8400002"
         transform="matrix(0.96,-0.3,0.3,0.96,-24.68,33.53)"
         id="rect50" />
      <path
         class="cls-12"
         d="m 148.09,102 2.19,7 a 7.84,7.84 0 0 1 -5.17,9.81 l -73.75,22.87 a 7.85,7.85 0 0 1 -9.82,-5.17 l -2.18,-7 a 7.84,7.84 0 0 0 9.81,5.16 l 73.76,-22.88 a 7.83,7.83 0 0 0 5.16,-9.79 z"
         id="path52" />
      <rect
         class="cls-13"
         x="83.959999"
         y="91.139999"
         width="6.1399999"
         height="18.83"
         rx="3.0699999"
         transform="rotate(-17.23,87.052638,100.59353)"
         id="rect54" />
      <rect
         class="cls-13"
         x="105.85"
         y="84.349998"
         width="6.1399999"
         height="18.83"
         rx="3.0699999"
         transform="rotate(-17.23,108.9482,93.78277)"
         id="rect56" />
      <rect
         class="cls-14"
         x="56.810001"
         y="76.300003"
         width="5.1599998"
         height="15.47"
         rx="2.5799999"
         transform="rotate(72.76,59.382596,84.042816)"
         id="rect58" />
      <circle
         class="cls-14"
         cx="71.029999"
         cy="80.550003"
         r="2.46"
         id="circle60" />
      <rect
         class="cls-15"
         x="54.889999"
         y="67.919998"
         width="20.120001"
         height="3.6099999"
         rx="1.8099999"
         transform="rotate(-17.23,64.956639,69.731472)"
         id="rect62" />
      <circle
         class="cls-15"
         cx="77.300003"
         cy="65.800003"
         r="1.88"
         id="circle64" />
      <rect
         class="cls-16"
         x="76.730003"
         y="47.119999"
         width="11.42"
         height="2.28"
         rx="1.14"
         transform="rotate(-17.23,82.453703,48.277672)"
         id="rect66" />
      <rect
         class="cls-16"
         x="75.639999"
         y="43.630001"
         width="11.42"
         height="2.28"
         rx="1.14"
         transform="rotate(-17.23,81.364582,44.770422)"
         id="rect68" />
      <rect
         class="cls-16"
         x="107.85"
         y="156.60001"
         width="17.469999"
         height="3.49"
         rx="1.75"
         transform="rotate(-17.23,116.6485,158.38451)"
         id="rect70" />
      <rect
         class="cls-16"
         x="106.2"
         y="151.25999"
         width="17.469999"
         height="3.49"
         rx="1.75"
         transform="matrix(0.96,-0.3,0.3,0.96,-40.17,40.92)"
         id="rect72" />
      <rect
         class="cls-2"
         x="44.68"
         y="57.669998"
         width="107.22"
         height="81.040001"
         rx="13.06"
         transform="matrix(0.96,-0.3,0.3,0.96,-24.68,33.53)"
         id="rect74" />
      <path
         class="cls-17"
         d="m 409,189.43 c 0,5.8 -118.72,10.5 -222,10.5 -103.28,0 -187,-4.7 -187,-10.5 0,-5.8 83.72,-10.5 187,-10.5 103.28,0 222,4.7 222,10.5 z"
         id="path76" />
      <path
         class="cls-17"
         d="m 519.19,189.43 c 0,2.35 -19,4.26 -35.53,4.26 -16.53,0 -29.93,-1.91 -29.93,-4.26 0,-2.35 13.4,-4.26 29.93,-4.26 16.53,0 35.53,1.91 35.53,4.26 z"
         id="path78" />
      <path
         class="cls-18"
         d="M 372.76,1 H 167.35 a 6.17,6.17 0 0 0 -6.07,5.11 l -23.84,156.62 a 6.16,6.16 0 0 0 6.07,7.2 h 213.26 a 6.15,6.15 0 0 0 6,-5 L 387.44,18.77 A 15,15 0 0 0 372.76,1 Z"
         id="path80" />
      <path
         class="cls-2"
         d="M 372.76,1 H 167.35 a 6.17,6.17 0 0 0 -6.07,5.11 l -23.84,156.62 a 6.16,6.16 0 0 0 6.07,7.2 h 213.26 a 6.15,6.15 0 0 0 6,-5 L 387.44,18.77 A 15,15 0 0 0 372.76,1 Z"
         id="path82" />
      <path
         class="cls-6"
         d="M 373,1 H 158.76 a 9.42,9.42 0 0 0 -9.29,7.83 l -24.62,161.1 H 351 L 378.3,7.39 A 5.39,5.39 0 0 0 373,1 Z"
         id="path84" />
      <path
         class="cls-2"
         d="M 373,1 H 158.76 a 9.42,9.42 0 0 0 -9.29,7.83 l -24.62,161.1 H 351 L 378.3,7.39 A 5.39,5.39 0 0 0 373,1 Z"
         id="path86" />
      <polygon
         class="cls-3"
         points="138.42,157.93 343.19,157.93 367.14,13 160.25,13 "
         id="polygon88" />
      <polygon
         class="cls-12"
         points="159.8,19.22 160.83,13.22 367.73,13.22 366.6,19.22 "
         id="polygon90" />
      <polygon
         class="cls-12"
         points="138.31,157.93 160.15,13 166.15,13 144.31,157.93 "
         id="polygon92" />
      <polygon
         class="cls-13"
         points="177.13,33.28 189.12,33.28 189.67,29.07 178.55,29.07 "
         id="polygon94" />
      <polygon
         class="cls-13"
         points="192.13,33.28 204.12,33.28 205.67,29.07 193.55,29.07 "
         id="polygon96" />
      <polygon
         class="cls-13"
         points="208.13,33.28 218.12,33.28 219.67,29.07 208.55,29.07 "
         id="polygon98" />
      <polygon
         class="cls-13"
         points="223.63,33.28 228.62,33.28 229.17,29.07 225.05,29.07 "
         id="polygon100" />
      <polygon
         class="cls-13"
         points="169.63,33.28 174.21,33.42 175.17,29.07 171.05,29.07 "
         id="polygon102" />
      <polygon
         class="cls-13"
         points="175.13,42.28 187.12,42.28 187.67,38.07 176.55,38.07 "
         id="polygon104" />
      <polygon
         class="cls-13"
         points="190.13,42.28 202.12,42.28 202.67,38.07 191.55,38.07 "
         id="polygon106" />
      <polygon
         class="cls-13"
         points="206.13,42.28 217.12,42.28 217.67,38.07 206.55,38.07 "
         id="polygon108" />
      <polygon
         class="cls-13"
         points="220.63,42.28 225.62,42.28 226.17,38.07 222.05,38.07 "
         id="polygon110" />
      <polygon
         class="cls-13"
         points="167.63,42.28 172.46,42.28 173.17,38.07 169.05,38.07 "
         id="polygon112" />
      <path
         class="cls-19"
         d="m 27.57,168.93 h 228.28 v 21 H 35.29 A 13.68,13.68 0 0 1 21.6,176.25 v -1.35 a 6,6 0 0 1 5.97,-5.97 z"
         id="path114" />
      <path
         class="cls-7"
         d="m 255.85,181.93 v 8 H 35.28 A 13.69,13.69 0 0 1 21.6,176.25 v -1.35 a 5.81,5.81 0 0 1 0.6,-2.6 13.73,13.73 0 0 0 13.08,9.63 z"
         id="path116" />
      <polygon
         class="cls-7"
         points="125.03,168.93 125.86,162.93 353.86,162.93 353.86,168.93 "
         id="polygon118" />
      <path
         class="cls-18"
         d="m 90.85,168.93 h 81 v 0 a 11,11 0 0 1 -11,11 h -59 a 11,11 0 0 1 -11,-11 z"
         id="path120" />
      <path
         class="cls-2"
         d="m 90.85,168.93 h 81 v 0 a 11,11 0 0 1 -11,11 h -59 a 11,11 0 0 1 -11,-11 z"
         id="path122" />
      <polygon
         class="cls-12"
         points="138.37,157.93 364.24,13 367.05,13 343.1,157.93 "
         id="polygon124" />
      <line
         class="cls-20"
         x1="372.35999"
         y1="157.92999"
         x2="367.85001"
         y2="160.92999"
         id="line126" />
      <rect
         class="cls-21"
         x="366.62"
         y="60.099998"
         width="15.48"
         height="3.52"
         rx="1.76"
         transform="rotate(98.85,374.36265,61.858807)"
         id="rect128" />
      <rect
         class="cls-21"
         x="370.09"
         y="37.849998"
         width="15.48"
         height="3.52"
         rx="1.76"
         transform="rotate(98.85,377.8275,39.605965)"
         id="rect130" />
      <rect
         class="cls-22"
         x="119.85"
         y="172.67"
         width="15.48"
         height="3.52"
         rx="1.76"
         id="rect132" />
      <rect
         class="cls-6"
         x="35.419998"
         y="168.99001"
         width="29.629999"
         height="5.3200002"
         rx="2.6600001"
         id="rect134" />
      <circle
         class="cls-6"
         cx="69.989998"
         cy="171.64999"
         r="2.6600001"
         id="circle136" />
      <rect
         class="cls-23"
         x="125.61"
         y="99.720001"
         width="29.629999"
         height="5.3200002"
         rx="2.6600001"
         transform="rotate(-81.12,140.43439,102.38335)"
         id="rect138" />
      <circle
         class="cls-23"
         cx="143.47"
         cy="82.870003"
         r="2.6600001"
         id="circle140" />
      <rect
         class="cls-23"
         x="162.42"
         y="3.99"
         width="29.629999"
         height="5.3200002"
         rx="2.6600001"
         id="rect142" />
      <circle
         class="cls-23"
         cx="196.99001"
         cy="6.6500001"
         r="2.6600001"
         id="circle144" />
      <circle
         class="cls-24"
         cx="245.85001"
         cy="6.9299998"
         r="3"
         id="circle146" />
      <rect
         class="cls-25"
         x="71.57"
         y="163.92999"
         width="23"
         height="5"
         id="rect148" />
      <rect
         class="cls-25"
         x="36.849998"
         y="163.92999"
         width="23"
         height="5"
         id="rect150" />
      <rect
         class="cls-25"
         x="106.28"
         y="163.92999"
         width="23"
         height="5"
         id="rect152" />
      <rect
         class="cls-25"
         x="141"
         y="163.92999"
         width="23"
         height="5"
         id="rect154" />
      <rect
         class="cls-25"
         x="175.71001"
         y="163.92999"
         width="23"
         height="5"
         id="rect156" />
      <rect
         class="cls-25"
         x="210.42999"
         y="163.92999"
         width="23"
         height="5"
         id="rect158" />
      <rect
         class="cls-25"
         x="245.14"
         y="163.92999"
         width="23"
         height="5"
         id="rect160" />
      <rect
         class="cls-25"
         x="314.85001"
         y="163.92999"
         width="23"
         height="5"
         id="rect162" />
      <rect
         class="cls-25"
         x="279.98999"
         y="164.08"
         width="23"
         height="5"
         id="rect164" />
      <rect
         class="cls-2"
         x="71.57"
         y="163.92999"
         width="23"
         height="5"
         id="rect166" />
      <rect
         class="cls-2"
         x="36.849998"
         y="163.92999"
         width="23"
         height="5"
         id="rect168" />
      <rect
         class="cls-2"
         x="106.28"
         y="163.92999"
         width="23"
         height="5"
         id="rect170" />
      <rect
         class="cls-2"
         x="141"
         y="163.92999"
         width="23"
         height="5"
         id="rect172" />
      <rect
         class="cls-2"
         x="175.71001"
         y="163.92999"
         width="23"
         height="5"
         id="rect174" />
      <rect
         class="cls-2"
         x="210.42999"
         y="163.92999"
         width="23"
         height="5"
         id="rect176" />
      <rect
         class="cls-2"
         x="245.14"
         y="163.92999"
         width="23"
         height="5"
         id="rect178" />
      <rect
         class="cls-2"
         x="314.85001"
         y="163.92999"
         width="23"
         height="5"
         id="rect180" />
      <rect
         class="cls-2"
         x="279.98999"
         y="164.08"
         width="23"
         height="5"
         id="rect182" />
      <polygon
         class="cls-2"
         points="138.32,157.93 343.09,157.93 367.04,13 160.15,13 "
         id="polygon184" />
      <path
         class="cls-26"
         d="m 338.69,29.57 h -86 a 8.52,8.52 0 0 0 -8.44,7.26 l -8.35,55.4 a 8.53,8.53 0 0 0 8.44,9.8 h 85.23 A 8.53,8.53 0 0 0 338,94.89 l 9.16,-55.4 a 8.53,8.53 0 0 0 -8.47,-9.92 z"
         id="path186" />
      <path
         class="cls-27"
         d="m 347,39.5 -9.15,55.39 a 8.54,8.54 0 0 1 -8.42,7.14 h -85.22 a 8.55,8.55 0 0 1 -8.35,-6.72 L 338.32,29.57 h 0.27 A 8.54,8.54 0 0 1 347,39.5 Z"
         id="path188" />
      <path
         class="cls-2"
         d="m 27.57,168.93 h 228.28 v 21 H 35.29 A 13.68,13.68 0 0 1 21.6,176.25 v -1.35 a 6,6 0 0 1 5.97,-5.97 z"
         id="path190" />
      <rect
         class="cls-18"
         x="234.85001"
         y="168.92999"
         width="137"
         height="21"
         rx="10.5"
         id="rect192" />
      <rect
         class="cls-22"
         x="344.37"
         y="177.67"
         width="15.48"
         height="3.52"
         rx="1.76"
         id="rect194" />
      <rect
         class="cls-22"
         x="321.85001"
         y="177.67"
         width="15.48"
         height="3.52"
         rx="1.76"
         id="rect196" />
      <rect
         class="cls-2"
         x="234.85001"
         y="168.92999"
         width="137"
         height="21"
         rx="10.5"
         id="rect198" />
      <line
         class="cls-28"
         x1="65.389999"
         y1="59.189999"
         x2="66.260002"
         y2="54.759998"
         id="line200" />
      <circle
         class="cls-26"
         cx="66.540001"
         cy="53.080002"
         r="0.63999999"
         id="circle202" />
      <path
         class="cls-29"
         d="m 108,60.05 17.26,-5.36 a 7.85,7.85 0 0 1 9.74,5.17 l 4.2,13.56"
         id="path204" />
      <line
         class="cls-29"
         x1="89.419998"
         y1="65.800003"
         x2="100.85"
         y2="62.25"
         id="line206" />
      <path
         class="cls-29"
         d="m 131.35,123.07 -60,18.61 a 7.85,7.85 0 0 1 -9.82,-5.17 L 46.3,87.39 a 7.85,7.85 0 0 1 5.17,-9.82 l 31.89,-9.89"
         id="path208" />
      <polygon
         class="cls-8"
         points="252.85,80.62 264.84,80.62 265.39,76.4 254.27,76.4 "
         id="polygon210" />
      <polygon
         class="cls-8"
         points="267.86,80.62 279.84,80.62 281.39,76.4 269.27,76.4 "
         id="polygon212" />
      <polygon
         class="cls-8"
         points="283.86,80.62 293.84,80.62 295.39,76.4 284.27,76.4 "
         id="polygon214" />
      <polygon
         class="cls-8"
         points="299.36,80.62 304.34,80.62 304.89,76.4 300.77,76.4 "
         id="polygon216" />
      <polygon
         class="cls-8"
         points="245.35,80.62 249.93,80.75 250.89,76.4 246.77,76.4 "
         id="polygon218" />
      <polygon
         class="cls-8"
         points="250.85,89.62 262.84,89.62 263.39,85.4 252.27,85.4 "
         id="polygon220" />
      <polygon
         class="cls-8"
         points="265.86,89.62 277.84,89.62 278.39,85.4 267.27,85.4 "
         id="polygon222" />
      <polygon
         class="cls-8"
         points="281.86,89.62 292.84,89.62 293.39,85.4 282.27,85.4 "
         id="polygon224" />
      <polygon
         class="cls-8"
         points="296.36,89.62 301.34,89.62 301.89,85.4 297.77,85.4 "
         id="polygon226" />
      <polygon
         class="cls-8"
         points="243.35,89.62 248.18,89.62 248.89,85.4 244.77,85.4 "
         id="polygon228" />
      <path
         class="cls-30"
         d="m 338.69,29.57 h -86 a 8.52,8.52 0 0 0 -8.44,7.26 l -8.35,55.4 a 8.53,8.53 0 0 0 8.44,9.8 h 85.23 A 8.53,8.53 0 0 0 338,94.89 l 9.16,-55.4 a 8.53,8.53 0 0 0 -8.47,-9.92 z"
         id="path230" />
    </g>
  </g>
  <metadata
     id="metadata1427">
    <rdf:RDF>
      <cc:Work
         rdf:about="">
        <dc:title>Asset 4</dc:title>
      </cc:Work>
    </rdf:RDF>
  </metadata>
</svg>
