<?xml version="1.0" encoding="UTF-8" standalone="no"?>
<svg
   id="ac356da0-b129-4ca5-aecc-4700531dd101"
   data-name="Layer 1"
   width="1129"
   height="663"
   viewBox="0 0 1129 663"
   version="1.1"
   sodipodi:docname="undraw_docusaurus_tree.svg"
   inkscape:version="1.1.1 (3bf5ae0d25, 2021-09-20)"
   xmlns:inkscape="http://www.inkscape.org/namespaces/inkscape"
   xmlns:sodipodi="http://sodipodi.sourceforge.net/DTD/sodipodi-0.dtd"
   xmlns="http://www.w3.org/2000/svg"
   xmlns:svg="http://www.w3.org/2000/svg"
   xmlns:rdf="http://www.w3.org/1999/02/22-rdf-syntax-ns#"
   xmlns:cc="http://creativecommons.org/ns#"
   xmlns:dc="http://purl.org/dc/elements/1.1/">
  <defs
     id="defs81" />
  <sodipodi:namedview
     id="namedview79"
     pagecolor="#ffffff"
     bordercolor="#666666"
     borderopacity="1.0"
     inkscape:pageshadow="2"
     inkscape:pageopacity="0.0"
     inkscape:pagecheckerboard="0"
     showgrid="false"
     inkscape:zoom="0.39187386"
     inkscape:cx="470.81477"
     inkscape:cy="331.73941"
     inkscape:window-width="1366"
     inkscape:window-height="715"
     inkscape:window-x="0"
     inkscape:window-y="0"
     inkscape:window-maximized="1"
     inkscape:current-layer="ac356da0-b129-4ca5-aecc-4700531dd101" />
  <title
     id="title2">docu_tree</title>
  <circle
     cx="321"
     cy="321"
     r="321"
     fill="#f2f2f2"
     id="circle4" />
  <ellipse
     cx="559"
     cy="635.49998"
     rx="514"
     ry="27.50002"
     fill="#3f3d56"
     id="ellipse6" />
  <ellipse
     cx="558"
     cy="627"
     rx="460"
     ry="22"
     opacity="0.2"
     id="ellipse8" />
  <rect
     x="131"
     y="152.5"
     width="840"
     height="50"
     fill="#3f3d56"
     id="rect10" />
  <path
     d="M166.5,727.3299A21.67009,21.67009,0,0,0,188.1701,749H984.8299A21.67009,21.67009,0,0,0,1006.5,727.3299V296h-840Z"
     transform="translate(-35.5 -118.5)"
     fill="#3f3d56"
     id="path12" />
  <path
     d="M984.8299,236H188.1701A21.67009,21.67009,0,0,0,166.5,257.6701V296h840V257.6701A21.67009,21.67009,0,0,0,984.8299,236Z"
     transform="translate(-35.5 -118.5)"
     fill="#3f3d56"
     id="path14" />
  <path
     d="M984.8299,236H188.1701A21.67009,21.67009,0,0,0,166.5,257.6701V296h840V257.6701A21.67009,21.67009,0,0,0,984.8299,236Z"
     transform="translate(-35.5 -118.5)"
     opacity="0.2"
     id="path16" />
  <circle
     cx="181"
     cy="147.5"
     r="13"
     fill="#3f3d56"
     id="circle18" />
  <circle
     cx="217"
     cy="147.5"
     r="13"
     fill="#3f3d56"
     id="circle20" />
  <circle
     cx="253"
     cy="147.5"
     r="13"
     fill="#3f3d56"
     id="circle22" />
  <rect
     x="168"
     y="240.09869"
     width="337"
     height="386"
     rx="5.3350501"
     fill="#606060"
     id="rect24" />
  <rect
     x="603"
     y="272.5"
     width="284"
     height="22"
     rx="5.47638"
     fill="#2e8555"
     id="rect26"
     style="fill:#2c6e9b;fill-opacity:1" />
  <rect
     x="537"
     y="352.5"
     width="416"
     height="15"
     rx="5.47638"
     fill="#2e8555"
     id="rect28" />
  <rect
     x="196"
     y="270.00647"
     width="276.47101"
     height="15"
     rx="3.6395679"
     fill="#2e8555"
     id="rect28-3"
     style="stroke-width:0.815226;fill:#f7b000;fill-opacity:1" />
  <rect
     x="194.69289"
     y="323.20389"
     width="276.47101"
     height="15"
     rx="3.6395679"
     fill="#2e8555"
     id="rect28-3-6"
     style="stroke-width:0.815226;fill:#f7b000;fill-opacity:1" />
  <rect
     x="194.69287"
     y="482.79611"
     width="276.47101"
     height="15"
     rx="3.6395679"
     fill="#2e8555"
     id="rect28-3-7"
     style="stroke-width:0.815226;fill:#f7b000;fill-opacity:1" />
  <rect
     x="194.69289"
     y="429.59869"
     width="276.47101"
     height="15"
     rx="3.6395679"
     fill="#2e8555"
     id="rect28-3-7-5"
     style="fill:#f7b000;fill-opacity:1;stroke-width:0.815226" />
  <rect
     x="197.30713"
     y="376.40131"
     width="276.47101"
     height="15"
     rx="3.6395679"
     fill="#2e8555"
     id="rect28-3-5"
     style="stroke-width:0.815226;fill:#f7b000;fill-opacity:1" />
  <rect
     x="254.5405"
     y="535.99353"
     width="157.01541"
     height="15"
     rx="2.0670097"
     fill="#2e8555"
     id="rect28-3-3"
     style="stroke-width:0.614362;fill:#f7b000;fill-opacity:1" />
  <rect
     x="537"
     y="396.5"
     width="416"
     height="15"
     rx="5.47638"
     fill="#2e8555"
     id="rect30" />
  <rect
     x="537"
     y="440.5"
     width="416"
     height="15"
     rx="5.47638"
     fill="#2e8555"
     id="rect32" />
  <rect
     x="537"
     y="484.5"
     width="416"
     height="15"
     rx="5.47638"
     fill="#2e8555"
     id="rect34" />
  <rect
     x="865"
     y="552.5"
     width="88"
     height="26"
     rx="7.02756"
     fill="#3ecc5f"
     id="rect36" />
  <path
     d="M1088.60287,624.61594a30.11371,30.11371,0,0,0,3.98291-15.266c0-13.79652-8.54358-24.98081-19.08256-24.98081s-19.08256,11.18429-19.08256,24.98081a30.11411,30.11411,0,0,0,3.98291,15.266,31.248,31.248,0,0,0,0,30.53213,31.248,31.248,0,0,0,0,30.53208,31.248,31.248,0,0,0,0,30.53208,30.11408,30.11408,0,0,0-3.98291,15.266c0,13.79652,8.54353,24.98081,19.08256,24.98081s19.08256-11.18429,19.08256-24.98081a30.11368,30.11368,0,0,0-3.98291-15.266,31.248,31.248,0,0,0,0-30.53208,31.248,31.248,0,0,0,0-30.53208,31.248,31.248,0,0,0,0-30.53213Z"
     transform="translate(-35.5 -118.5)"
     fill="#3f3d56"
     id="path38" />
  <ellipse
     cx="1038.00321"
     cy="460.31783"
     rx="19.08256"
     ry="24.9808"
     fill="#3f3d56"
     id="ellipse40" />
  <ellipse
     cx="1038.00321"
     cy="429.78574"
     rx="19.08256"
     ry="24.9808"
     fill="#3f3d56"
     id="ellipse42" />
  <path
     d="M1144.93871,339.34489a91.61081,91.61081,0,0,0,7.10658-10.46092l-50.141-8.23491,54.22885.4033a91.566,91.566,0,0,0,1.74556-72.42605l-72.75449,37.74139,67.09658-49.32086a91.41255,91.41255,0,1,0-150.971,102.29805,91.45842,91.45842,0,0,0-10.42451,16.66946l65.0866,33.81447-69.40046-23.292a91.46011,91.46011,0,0,0,14.73837,85.83669,91.40575,91.40575,0,1,0,143.68892,0,91.41808,91.41808,0,0,0,0-113.02862Z"
     transform="translate(-35.5 -118.5)"
     fill="#3ecc5f"
     fill-rule="evenodd"
     id="path44" />
  <path
     d="M981.6885,395.8592a91.01343,91.01343,0,0,0,19.56129,56.51431,91.40575,91.40575,0,1,0,143.68892,0C1157.18982,436.82067,981.6885,385.60008,981.6885,395.8592Z"
     transform="translate(-35.5 -118.5)"
     opacity="0.1"
     id="path46" />
  <metadata
     id="metadata898">
    <rdf:RDF>
      <cc:Work
         rdf:about="">
        <dc:title>docu_tree</dc:title>
      </cc:Work>
    </rdf:RDF>
  </metadata>
</svg>
